#N canvas 0 26 1024 686 12;
#X obj 786 192 metro;
#X obj 101 490 sel 0;
#X obj 177 490 sel 1;
#X obj 254 490 sel 2;
#X obj 307 451 random 12;
#X obj 334 490 sel 3;
#X obj 414 490 sel 4;
#X obj 496 490 sel 5;
#X obj 101 540 sel 6;
#X obj 177 540 sel 7;
#X obj 254 540 sel 8;
#X obj 334 540 sel 9;
#X obj 414 540 sel 10;
#X obj 496 540 sel 11;
#X obj 435 39 tgl 20 0 empty empty empty 0 -10 0 12 #fcfcfc #000000 #000000 0 1;
#X symbolatom 196 126 2 0 0 1 - nextkey - 36;
#X msg 101 515 symbol C;
#X msg 254 515 symbol D;
#X msg 414 515 symbol E;
#X msg 496 515 symbol F;
#X msg 177 565 symbol G;
#X msg 334 565 symbol A;
#X msg 496 565 symbol B;
#X obj 663 400 sel 0;
#X msg 663 425 symbol;
#X msg 739 425 symbol -;
#X msg 821 425 symbol +;
#X msg 904 425 symbol °;
#X msg 666 482 symbol -7;
#X msg 742 482 symbol 7;
#X msg 823 484 symbol △7;
#X msg 665 536 symbol °7;
#X msg 834 542 symbol -△7;
#X obj 773 358 random 10;
#X symbolatom 243 126 4 0 0 0 - nextchord - 36;
#X obj 739 400 sel 1;
#X obj 821 400 sel 2;
#X obj 904 400 sel 3;
#X obj 666 457 sel 4;
#X obj 742 457 sel 5;
#X obj 823 459 sel 6;
#X obj 665 511 sel 7;
#X obj 747 515 sel 8;
#X obj 834 517 sel 9;
#X obj 155 39 hradio 50 1 0 4 empty beat empty 0 -10 0 12 #fcfcfc #000000 #000000 0;
#X obj 807 248 f;
#X obj 807 273 + 1;
#X msg 807 223 0;
#X obj 807 298 sel 3;
#X obj 768 311 sel 0;
#X obj 722 281 s beat;
#X floatatom 434 10 5 0 0 0 - - - 0;
#X obj 732 159 expr 60000/$f1;
#X obj 285 600 symbol;
#X obj 287 632 symbol;
#X obj 180 592 r beat;
#X obj 180 617 sel 0;
#X obj 368 656 s key;
#X obj 375 604 s nextkey;
#X obj 769 597 symbol;
#X obj 771 629 symbol;
#X obj 677 569 r beat;
#X obj 677 594 sel 0;
#X obj 852 653 s chord;
#X obj 859 601 s nextchord;
#X symbolatom 197 204 2 0 0 1 - key - 36;
#X symbolatom 244 204 4 0 0 0 - chord - 36;
#X obj 182 642 t b b;
#X obj 677 618 t b b;
#X obj 877 282 noise~;
#X msg 638 215 0;
#X msg 634 253 symbol;
#X text 721 5 add more chord types as needed;
#X text 584 23 may need a more comprehensive system for chord extensions in the future;
#X obj 921 320 *~;
#X obj 921 345 dac~;
#X msg 975 274 0;
#X msg 938 273 1;
#X obj 944 234 del 25;
#X msg 747 540 symbol -7♭5;
#X msg 177 515 symbol D♭;
#X msg 334 515 symbol E♭;
#X msg 101 565 symbol G♭;
#X msg 254 565 symbol A♭;
#X msg 414 565 symbol B♭;
#X connect 0 0 45 0;
#X connect 0 0 77 0;
#X connect 0 0 78 0;
#X connect 1 0 16 0;
#X connect 2 0 80 0;
#X connect 3 0 17 0;
#X connect 4 0 1 0;
#X connect 4 0 2 0;
#X connect 4 0 3 0;
#X connect 4 0 5 0;
#X connect 4 0 6 0;
#X connect 4 0 7 0;
#X connect 4 0 8 0;
#X connect 4 0 9 0;
#X connect 4 0 10 0;
#X connect 4 0 11 0;
#X connect 4 0 12 0;
#X connect 4 0 13 0;
#X connect 5 0 81 0;
#X connect 6 0 18 0;
#X connect 7 0 19 0;
#X connect 8 0 82 0;
#X connect 9 0 20 0;
#X connect 10 0 83 0;
#X connect 11 0 21 0;
#X connect 12 0 84 0;
#X connect 13 0 22 0;
#X connect 14 0 0 0;
#X connect 14 0 70 0;
#X connect 14 0 71 0;
#X connect 16 0 53 1;
#X connect 17 0 53 1;
#X connect 18 0 53 1;
#X connect 19 0 53 1;
#X connect 20 0 53 1;
#X connect 21 0 53 1;
#X connect 22 0 53 1;
#X connect 23 0 24 0;
#X connect 24 0 59 1;
#X connect 25 0 59 1;
#X connect 26 0 59 1;
#X connect 27 0 59 1;
#X connect 28 0 59 1;
#X connect 29 0 59 1;
#X connect 30 0 59 1;
#X connect 31 0 59 1;
#X connect 32 0 59 1;
#X connect 33 0 23 0;
#X connect 33 0 35 0;
#X connect 33 0 36 0;
#X connect 33 0 37 0;
#X connect 33 0 38 0;
#X connect 33 0 39 0;
#X connect 33 0 40 0;
#X connect 33 0 41 0;
#X connect 33 0 42 0;
#X connect 33 0 43 0;
#X connect 35 0 25 0;
#X connect 36 0 26 0;
#X connect 37 0 27 0;
#X connect 38 0 28 0;
#X connect 39 0 29 0;
#X connect 40 0 30 0;
#X connect 41 0 31 0;
#X connect 42 0 79 0;
#X connect 43 0 32 0;
#X connect 45 0 46 0;
#X connect 45 0 48 0;
#X connect 45 0 49 0;
#X connect 45 0 50 0;
#X connect 46 0 45 1;
#X connect 47 0 45 1;
#X connect 48 0 47 0;
#X connect 49 0 4 0;
#X connect 49 0 33 0;
#X connect 51 0 52 0;
#X connect 52 0 0 1;
#X connect 53 0 54 1;
#X connect 53 0 58 0;
#X connect 54 0 57 0;
#X connect 55 0 56 0;
#X connect 56 0 67 0;
#X connect 59 0 60 1;
#X connect 59 0 64 0;
#X connect 60 0 63 0;
#X connect 61 0 62 0;
#X connect 62 0 68 0;
#X connect 67 0 53 0;
#X connect 67 1 54 0;
#X connect 68 0 59 0;
#X connect 68 1 60 0;
#X connect 69 0 74 0;
#X connect 70 0 45 0;
#X connect 71 0 53 0;
#X connect 71 0 54 0;
#X connect 71 0 59 0;
#X connect 71 0 60 0;
#X connect 74 0 75 0;
#X connect 74 0 75 1;
#X connect 76 0 74 1;
#X connect 77 0 74 1;
#X connect 78 0 76 0;
#X connect 79 0 59 1;
#X connect 80 0 53 1;
#X connect 81 0 53 1;
#X connect 82 0 53 1;
#X connect 83 0 53 1;
#X connect 84 0 53 1;
